<svg width="200" height="200" viewBox="0 0 200 200" fill="none" xmlns="http://www.w3.org/2000/svg">
<g clip-path="url(#clip0_508_917)">
<path d="M126.968 44.9793H73.0768C71.8487 44.9809 70.6714 45.4813 69.803 46.371C68.9346 47.2606 68.4461 48.4668 68.4446 49.7249V172.428L67.8269 172.621L54.6065 176.769C53.98 176.965 53.3032 176.898 52.7249 176.583C52.1465 176.268 51.7137 175.731 51.5216 175.089L12.1969 43.4956C12.0055 42.8537 12.0708 42.1602 12.3783 41.5676C12.6857 40.9749 13.2103 40.5316 13.8367 40.3351L34.2094 33.9444L93.2703 15.4242L113.643 9.03353C113.953 8.93578 114.279 8.90162 114.602 8.93301C114.924 8.9644 115.238 9.06072 115.525 9.21646C115.811 9.37221 116.065 9.58431 116.272 9.84064C116.478 10.097 116.633 10.3925 116.728 10.7103L126.78 44.3466L126.968 44.9793Z" fill="#9C9C9C"/>
<path d="M138.728 44.3465L126.613 3.80699C126.411 3.13153 126.082 2.50337 125.643 1.95842C125.205 1.41347 124.666 0.962401 124.057 0.630991C123.448 0.299582 122.781 0.0943234 122.095 0.026953C121.409 -0.0404173 120.716 0.0314207 120.057 0.238355L91.4143 9.22006L32.3565 27.7435L3.71387 36.7283C2.38328 37.1469 1.26916 38.0892 0.616061 39.3484C-0.0370401 40.6077 -0.175768 42.0809 0.230334 43.4448L41.6363 181.992C41.9662 183.093 42.6319 184.057 43.5356 184.742C44.4393 185.427 45.5336 185.797 46.6577 185.798C47.178 185.798 47.6954 185.718 48.1925 185.561L67.827 179.404L68.4446 179.208V178.547L67.827 178.74L48.0103 184.957C46.8358 185.323 45.5673 185.198 44.483 184.608C43.3986 184.018 42.587 183.011 42.2262 181.809L0.823386 43.2582C0.64461 42.6624 0.582302 42.0364 0.640027 41.4159C0.697753 40.7955 0.874373 40.1928 1.15979 39.6424C1.4452 39.0919 1.8338 38.6046 2.30332 38.2083C2.77284 37.8119 3.31407 37.5143 3.89601 37.3326L32.5386 28.3477L91.5966 9.82749L120.239 0.842625C120.681 0.704625 121.139 0.634261 121.601 0.63382C122.591 0.636099 123.555 0.96321 124.351 1.56724C125.147 2.17127 125.733 3.02049 126.023 3.99049L138.082 44.3465L138.274 44.9792H138.916L138.728 44.3465Z" fill="white"/>
<path d="M37.8858 40.4385C37.2905 40.4381 36.7111 40.2422 36.2325 39.8797C35.7539 39.5172 35.4013 39.0071 35.2264 38.4243L31.2488 25.1141C31.1419 24.7565 31.1048 24.3809 31.1396 24.0087C31.1745 23.6365 31.2805 23.275 31.4518 22.9447C31.623 22.6145 31.8561 22.3221 32.1376 22.0841C32.4192 21.8462 32.7438 21.6674 33.0928 21.558L87.4254 4.51721C88.1303 4.29687 88.8916 4.37202 89.5424 4.72616C90.1933 5.0803 90.6803 5.6845 90.8968 6.40615L94.8744 19.7165C95.0894 20.4386 95.0159 21.2185 94.6703 21.8852C94.3246 22.5519 93.7349 23.0509 93.0306 23.2727L38.6977 40.3135C38.4346 40.3962 38.161 40.4384 37.8858 40.4385Z" fill="#2FD159"/>
<path d="M58.7222 14.2222C62.1333 14.2222 64.8985 11.3894 64.8985 7.89486C64.8985 4.40035 62.1333 1.56749 58.7222 1.56749C55.3111 1.56749 52.5459 4.40035 52.5459 7.89486C52.5459 11.3894 55.3111 14.2222 58.7222 14.2222Z" fill="#2FD159"/>
<path d="M58.7223 11.9016C60.8823 11.9016 62.6333 10.1077 62.6333 7.89487C62.6333 5.68204 60.8823 3.88818 58.7223 3.88818C56.5623 3.88818 54.8113 5.68204 54.8113 7.89487C54.8113 10.1077 56.5623 11.9016 58.7223 11.9016Z" fill="#D5D5D5"/>
<path d="M186.103 184.182H81.7238C81.0279 184.181 80.3607 183.897 79.8686 183.393C79.3765 182.889 79.0997 182.205 79.0989 181.492V53.3631C79.0997 52.6502 79.3765 51.9666 79.8686 51.4625C80.3607 50.9584 81.0279 50.6748 81.7238 50.674H186.103C186.799 50.6748 187.467 50.9584 187.959 51.4625C188.451 51.9666 188.728 52.6502 188.728 53.3631V181.492C188.728 182.205 188.451 182.889 187.959 183.393C187.467 183.897 186.799 184.181 186.103 184.182Z" fill="#9C9C9C"/>
<path d="M138.083 44.3466H73.077C71.6853 44.3486 70.3511 44.9159 69.367 45.9241C68.3829 46.9323 67.8291 48.2991 67.8271 49.7249V178.74L68.4448 178.547V49.7249C68.4463 48.4668 68.9348 47.2606 69.8032 46.371C70.6716 45.4814 71.8489 44.9809 73.077 44.9794H138.274L138.083 44.3466ZM194.75 44.3466H73.077C71.6853 44.3486 70.3511 44.9159 69.367 45.9241C68.3829 46.9323 67.8291 48.2991 67.8271 49.7249V194.622C67.8291 196.048 68.3829 197.414 69.367 198.423C70.3511 199.431 71.6853 199.998 73.077 200H194.75C196.142 199.998 197.476 199.431 198.46 198.423C199.444 197.414 199.998 196.048 200 194.622V49.7249C199.998 48.2991 199.444 46.9323 198.46 45.9241C197.476 44.9159 196.142 44.3486 194.75 44.3466ZM199.382 194.622C199.381 195.88 198.892 197.086 198.024 197.976C197.156 198.865 195.978 199.366 194.75 199.367H73.077C71.8489 199.366 70.6716 198.865 69.8032 197.976C68.9348 197.086 68.4463 195.88 68.4448 194.622V49.7249C68.4463 48.4668 68.9348 47.2606 69.8032 46.371C70.6716 45.4814 71.8489 44.9809 73.077 44.9794H194.75C195.978 44.9809 197.156 45.4814 198.024 46.371C198.892 47.2606 199.381 48.4668 199.382 49.7249V194.622Z" fill="white"/>
<path d="M162.325 58.2668H105.502C104.766 58.266 104.059 57.9657 103.538 57.4319C103.017 56.8981 102.724 56.1744 102.723 55.4195V41.4993C102.724 40.7444 103.017 40.0207 103.538 39.4869C104.059 38.9531 104.766 38.6528 105.502 38.652H162.325C163.061 38.6528 163.768 38.9531 164.289 39.4869C164.81 40.0207 165.103 40.7444 165.104 41.4993V55.4195C165.103 56.1744 164.81 56.8981 164.289 57.4319C163.768 57.9657 163.061 58.266 162.325 58.2668Z" fill="#2FD159"/>
<path d="M133.914 39.6011C137.325 39.6011 140.09 36.7682 140.09 33.2737C140.09 29.7792 137.325 26.9463 133.914 26.9463C130.503 26.9463 127.737 29.7792 127.737 33.2737C127.737 36.7682 130.503 39.6011 133.914 39.6011Z" fill="#2FD159"/>
<path d="M133.914 37.1277C135.991 37.1277 137.676 35.4022 137.676 33.2737C137.676 31.1452 135.991 29.4197 133.914 29.4197C131.836 29.4197 130.152 31.1452 130.152 33.2737C130.152 35.4022 131.836 37.1277 133.914 37.1277Z" fill="#D5D5D5"/>
</g>
<defs>
<clipPath id="clip0_508_917">
<rect width="200" height="200" fill="white"/>
</clipPath>
</defs>
</svg>
